<?xml version="1.0" encoding="UTF-8" standalone="no"?>
<!-- Created with Inkscape (http://www.inkscape.org/) -->

<svg
   xmlns:dc="http://purl.org/dc/elements/1.1/"
   xmlns:cc="http://creativecommons.org/ns#"
   xmlns:rdf="http://www.w3.org/1999/02/22-rdf-syntax-ns#"
   xmlns:svg="http://www.w3.org/2000/svg"
   xmlns="http://www.w3.org/2000/svg"
   xmlns:xlink="http://www.w3.org/1999/xlink"
   xmlns:sodipodi="http://sodipodi.sourceforge.net/DTD/sodipodi-0.dtd"
   xmlns:inkscape="http://www.inkscape.org/namespaces/inkscape"
   width="500"
   height="500"
   id="svg2"
   version="1.1"
   inkscape:version="0.47 r22583"
   sodipodi:docname="trends.svg">
  <defs
     id="defs4">
    <linearGradient
       id="linearGradient3617">
      <stop
         style="stop-color:#cc0000;stop-opacity:1;"
         offset="0"
         id="stop3627" />
      <stop
         style="stop-color:#ff6600;stop-opacity:1;"
         offset="1"
         id="stop3621" />
    </linearGradient>
    <inkscape:perspective
       sodipodi:type="inkscape:persp3d"
       inkscape:vp_x="0 : 526.18109 : 1"
       inkscape:vp_y="0 : 1000 : 0"
       inkscape:vp_z="744.09448 : 526.18109 : 1"
       inkscape:persp3d-origin="372.04724 : 350.78739 : 1"
       id="perspective10" />
    <linearGradient
       inkscape:collect="always"
       xlink:href="#linearGradient3617"
       id="linearGradient3603"
       x1="77.338699"
       y1="944.22815"
       x2="163.52008"
       y2="793.88544"
       gradientUnits="userSpaceOnUse" />
  </defs>
  <sodipodi:namedview
     id="base"
     pagecolor="#ffffff"
     bordercolor="#666666"
     borderopacity="1.0"
     inkscape:pageopacity="0.0"
     inkscape:pageshadow="2"
     inkscape:zoom="0.73831341"
     inkscape:cx="503.92222"
     inkscape:cy="116.37153"
     inkscape:document-units="px"
     inkscape:current-layer="layer1"
     showgrid="false"
     inkscape:window-width="1440"
     inkscape:window-height="828"
     inkscape:window-x="0"
     inkscape:window-y="24"
     inkscape:window-maximized="1" />
  <metadata
     id="metadata7">
    <rdf:RDF>
      <cc:Work
         rdf:about="">
        <dc:format>image/svg+xml</dc:format>
        <dc:type
           rdf:resource="http://purl.org/dc/dcmitype/StillImage" />
        <dc:title />
      </cc:Work>
    </rdf:RDF>
  </metadata>
  <g
     inkscape:label="レイヤー 1"
     inkscape:groupmode="layer"
     id="layer1"
     transform="translate(0,-552.36218)">
    <g
       id="g3689"
       style="opacity:0.3">
      <g
         id="g3673">
        <rect
           style="opacity:0.50000000000000000;fill:#000000;fill-opacity:1;stroke:none"
           id="rect3640"
           width="5.6079674"
           height="516.26044"
           x="435.608"
           y="539.63818" />
        <rect
           style="opacity:0.50000000000000000;fill:#000000;fill-opacity:1;stroke:none"
           id="rect3644"
           width="5.6079674"
           height="516.26044"
           x="58.784115"
           y="539.63818" />
        <rect
           y="539.63818"
           x="310.00006"
           height="516.26044"
           width="5.6079674"
           id="rect3646"
           style="opacity:0.50000000000000000;fill:#000000;fill-opacity:1;stroke:none" />
        <rect
           style="opacity:0.50000000000000000;fill:#000000;fill-opacity:1;stroke:none"
           id="rect3648"
           width="5.6079674"
           height="516.26044"
           x="184.39207"
           y="539.63818" />
      </g>
      <g
         transform="matrix(0,-1,1,0,-547.76836,1047.7684)"
         id="g3679">
        <rect
           y="539.63818"
           x="435.608"
           height="516.26044"
           width="5.6079674"
           id="rect3681"
           style="opacity:0.50000000000000000;fill:#000000;fill-opacity:1;stroke:none" />
        <rect
           y="539.63818"
           x="58.784115"
           height="516.26044"
           width="5.6079674"
           id="rect3683"
           style="opacity:0.50000000000000000;fill:#000000;fill-opacity:1;stroke:none" />
        <rect
           style="opacity:0.50000000000000000;fill:#000000;fill-opacity:1;stroke:none"
           id="rect3685"
           width="5.6079674"
           height="516.26044"
           x="310.00006"
           y="539.63818" />
        <rect
           y="539.63818"
           x="184.39207"
           height="516.26044"
           width="5.6079674"
           id="rect3687"
           style="opacity:0.50000000000000000;fill:#000000;fill-opacity:1;stroke:none" />
      </g>
    </g>
    <g
       id="g3605">
      <path
         id="rect3635"
         d="m 434.99986,636.38423 -83.63082,22.39941 0,-9.81761 -60.65951,0 0,26.07863 -0.0953,0.0191 0.0953,0.36221 0,1.31537 0.34314,0 0.11438,0.40033 59.87792,34.58087 -92.49527,160.17008 -120.95681,-69.71459 -84.050204,145.58666 -15.517548,0 0,26.8221 0.07625,0 52.805414,30.48221 69.085498,-119.62236 120.89962,69.82895 0.0381,0 122.95846,-213.05173 67.71294,39.11795 1.22005,-0.32407 0.70534,0.49564 0,-0.68628 0.15251,-0.0381 -0.15251,-0.5719 0,-26.47897 -9.3029,-8.23535 -29.22408,-109.11849 z"
         style="fill:#cc0000;fill-opacity:1;stroke:none" />
      <path
         sodipodi:nodetypes="cccccccccccccccc"
         id="rect2816"
         d="m 290.61208,648.225 0.55754,2.08075 59.86847,34.58064 -92.4899,160.17024 -120.9533,-69.72347 -99.534902,172.39949 52.854287,30.4999 69.070535,-119.63368 120.90432,69.83527 0.0418,0.009 122.96149,-213.05642 67.7133,39.10986 2.08075,-0.55754 -38.69205,-144.4007 -144.38229,38.68711 0,3e-5 z"
         style="fill:url(#linearGradient3603);fill-opacity:1;stroke:none" />
    </g>
    <path
       id="path3607"
       d="m 914.14419,556.17834 -245.0567,0 0,3.53553 241.52116,241.52116 3.53554,0 0,-245.05669 z"
       style="fill:#fd0000;fill-opacity:1;stroke:none" />
    <rect
       style="fill:#e10000;fill-opacity:1;stroke:none"
       id="rect3609"
       width="326.32968"
       height="100.02442"
       x="-242.27168"
       y="1105.6196"
       transform="matrix(0.70710678,-0.70710678,0.70710678,0.70710678,0,0)" />
  </g>
</svg>
